<svg xmlns="http://www.w3.org/2000/svg" width="72" height="72" viewBox="0 0 72 72">
  <g id="add_missed_punchin" data-name="add missed_punchin" transform="translate(-4425 -8320)">
    <g id="Pay_stub" transform="translate(111)">
      <rect id="Rectangle_148205" data-name="Rectangle 148205" width="72" height="72" transform="translate(4314 8320)" fill="rgba(255,255,255,0)"/>
    </g>
    <path id="Path_82798" data-name="Path 82798" d="M48.3,64.7V59.155H42.447V54.276H48.3V48.421H53.18v5.855h5.543v4.879H53.18V64.7ZM7.318,59.279A7.327,7.327,0,0,1,0,51.96V12.929A7.327,7.327,0,0,1,7.318,5.611H9.758V2.44a2.439,2.439,0,1,1,4.879,0V5.611H39.519V2.44a2.439,2.439,0,1,1,4.879,0V5.611H46.35a7.326,7.326,0,0,1,7.318,7.318V44.642H48.789v-22.2H4.879V51.96a2.442,2.442,0,0,0,2.44,2.44H38.543v4.879Zm-2.44-46.35v4.635h43.91V12.929A2.442,2.442,0,0,0,46.35,10.49H7.318A2.442,2.442,0,0,0,4.879,12.929Zm10.978,24.1A10.556,10.556,0,1,1,26.413,47.584,10.56,10.56,0,0,1,15.856,37.027Zm9.5,7.39h2.111V42.306H25.357ZM28.524,33.86a2.066,2.066,0,0,1-.623,1.489l-1.309,1.33a4.249,4.249,0,0,0-1.235,2.987v.528h2.111A3.593,3.593,0,0,1,28.7,37.207l.95-.971a3.359,3.359,0,0,0,.981-2.375,4.222,4.222,0,0,0-8.445,0H24.3a2.111,2.111,0,1,1,4.222,0Z" transform="translate(4432 8324)" fill="#fff"/>
  </g>
</svg>
