<svg xmlns="http://www.w3.org/2000/svg" width="72" height="72" viewBox="0 0 72 72">
  <g id="Pay_stub" transform="translate(-4314 -8320)">
    <g id="Rectangle_148205" data-name="Rectangle 148205" transform="translate(4314 8320)" fill="rgba(255,255,255,0)" stroke="#707070" stroke-width="1" opacity="0">
      <rect width="72" height="72" stroke="none"/>
      <rect x="0.5" y="0.5" width="71" height="71" fill="none"/>
    </g>
    <path id="Path_82797" data-name="Path 82797" d="M7.781,63.014A7.79,7.79,0,0,1,0,55.232V7.781A7.79,7.79,0,0,1,7.781,0H38.6a7.79,7.79,0,0,1,7.781,7.781V20.767C53.2,23.786,58.791,32.438,59.032,32.814a2.693,2.693,0,0,1,.25.836,10.543,10.543,0,0,1,.081,1.313V48.1l4.186,5.689a2.1,2.1,0,0,1-3.388,2.493l-4.2-5.7a3.9,3.9,0,0,1-.639-1.169A4.8,4.8,0,0,1,55.157,48V34.589c-1.079-1.566-4.648-6.463-8.771-9.06v7.894q0,.1-.009.195L50.6,37.169a2.1,2.1,0,0,1-2.709,3.219l-9.662-8.13c-.071-.034-1.246-.758-2.046.043-.73.73-.415,1.311-.246,1.528l9.334,10.006a4.149,4.149,0,0,1,.574,1.051,4.446,4.446,0,0,1,.2,1.206v5.744a5.021,5.021,0,0,0,.128.794,2.239,2.239,0,0,0,.249.579l4.514,6.12a2.1,2.1,0,0,1-3.385,2.5s-2.532-3.252-5.19-7a2.239,2.239,0,0,1-.387-.73,2.084,2.084,0,0,1-.138-.865c-.009-3.535,0-6.908,0-6.908l-9.1-9.763a5.347,5.347,0,0,1,.466-7.233c2.676-2.676,6.137-1.427,7.593-.394l1.376,1.156V7.781A3.579,3.579,0,0,0,38.6,4.207H7.781A3.579,3.579,0,0,0,4.207,7.781V55.232a3.579,3.579,0,0,0,3.575,3.575H34.549a2.1,2.1,0,1,1,0,4.207Zm4.208-11.482V47.325H29.236v4.207Zm0-7.572V39.753H29.236v4.207ZM20.14,29.094a5.224,5.224,0,0,1-3.462-1.475,4.856,4.856,0,0,1-1.256-3.4l3.46-.061a2.685,2.685,0,0,0,.55,1.773,1.825,1.825,0,0,0,1.484.585,1.453,1.453,0,0,0,1.092-.435,1.584,1.584,0,0,0,.38-1.152,1.879,1.879,0,0,0-.423-1.266,3.734,3.734,0,0,0-1.422-.848q-1.013-.393-1.873-.8a6.451,6.451,0,0,1-1.486-.95,3.833,3.833,0,0,1-.967-1.267,4.283,4.283,0,0,1-.36-1.76,3.8,3.8,0,0,1,1.121-2.88,5.036,5.036,0,0,1,3.1-1.364l-.038-2.167,1.633-.029.039,2.208A4.587,4.587,0,0,1,24.691,15.3a4.813,4.813,0,0,1,1.129,3.2l-3.471.061a2.8,2.8,0,0,0-.439-1.636,1.352,1.352,0,0,0-1.181-.554,1.327,1.327,0,0,0-1.045.444,1.719,1.719,0,0,0-.354,1.182,1.663,1.663,0,0,0,.452,1.2,4.249,4.249,0,0,0,1.4.828q.963.389,1.817.811a6.879,6.879,0,0,1,1.481.965,4.047,4.047,0,0,1,.988,1.277,4.129,4.129,0,0,1,.38,1.77,3.868,3.868,0,0,1-1.064,2.884,4.8,4.8,0,0,1-3.012,1.347l.036,2.064-1.633.028Z" transform="translate(4318.431 8324)" fill="#fefffa"/>
  </g>
</svg>
